<svg width="52" height="52" viewBox="0 0 52 52" fill="none" xmlns="http://www.w3.org/2000/svg">
<path d="M25.9749 50.861C32.6099 50.974 39.6349 50.13 39.6349 50.13C39.6349 30.061 40.083 20.979 40.083 20.979L42.7729 23.838L50.623 17.225L44.568 8.086C42.045 4.779 40.3629 4.163 40.3629 4.163L32.1769 0.797997C29.4309 2.761 25.9739 2.616 25.9739 2.616H25.673C25.673 2.616 22.2169 2.761 19.4689 0.797997L11.283 4.163C11.283 4.163 9.60095 4.78 7.07895 8.086L1.02295 17.225L8.87195 23.838L11.5619 20.979C11.5619 20.979 12.0109 30.062 12.0109 50.13C12.0109 50.13 19.037 50.975 25.672 50.861H25.9749Z" stroke="#FC6828" stroke-width="1.5" stroke-miterlimit="10" stroke-linecap="round" stroke-linejoin="round"/>
<path d="M42.3779 5.618C42.9959 6.198 43.7359 6.995 44.5679 8.085L50.6229 17.224L42.7729 23.837L40.0829 20.978C39.6349 10.16 42.3779 5.619 42.3779 5.618Z" stroke="#FC6828" stroke-width="1.5" stroke-miterlimit="10" stroke-linecap="round" stroke-linejoin="round"/>
<path d="M9.271 5.618C8.653 6.198 7.913 6.995 7.081 8.085L1.026 17.224L8.875 23.837L11.565 20.978C12.014 10.16 9.271 5.619 9.271 5.618Z" stroke="#FC6828" stroke-width="1.5" stroke-miterlimit="10" stroke-linecap="round" stroke-linejoin="round"/>
<path d="M19.4709 0.796997C19.4709 0.796997 21.1139 5.902 25.6749 5.791H25.9749C30.5369 5.902 32.1799 0.796997 32.1799 0.796997L36.0299 2.379C35.7679 3.327 33.7159 9.754 26.0259 9.752H25.6249C17.9329 9.755 15.8819 3.32 15.6229 2.378V2.379L19.4709 0.796997Z" stroke="#FC6828" stroke-width="1.5" stroke-miterlimit="10" stroke-linecap="round" stroke-linejoin="round"/>
<path d="M32.1799 0.796997C32.1799 0.796997 30.5359 5.902 25.9749 5.791H25.6749C21.1139 5.902 19.4709 0.796997 19.4709 0.796997C22.2189 2.76 25.6749 2.615 25.6749 2.615H25.9749C25.9749 2.615 29.4339 2.76 32.1799 0.796997Z" stroke="#FC6828" stroke-width="1.5" stroke-miterlimit="10" stroke-linecap="round" stroke-linejoin="round"/>
</svg>
